HIERARCHY
ROOT joint_Root
{
	OFFSET 0.0 0.0 0.0
	CHANNELS 6 Xposition Yposition Zposition Zrotation Xrotation Yrotation 
	JOINT Hips
	{
		OFFSET -17.1583 93.1646 452.98
		CHANNELS 6 Xposition Yposition Zposition Zrotation Xrotation Yrotation 
		JOINT Spine
		{
			OFFSET 15.7357 0.0 0.0
			CHANNELS 6 Xposition Yposition Zposition Zrotation Xrotation Yrotation 
			JOINT Chest
			{
				OFFSET 8.98455 -0.406207 0.0
				CHANNELS 6 Xposition Yposition Zposition Zrotation Xrotation Yrotation 
				JOINT Neck
				{
					OFFSET 16.3773 0.0 0.0
					CHANNELS 6 Xposition Yposition Zposition Zrotation Xrotation Yrotation 
					JOINT Head
					{
						OFFSET 6.45672 0.0 0.0
						CHANNELS 6 Xposition Yposition Zposition Zrotation Xrotation Yrotation 
						End Site
						{
							OFFSET 0.0 0.0 0.0
						}
					}
				}
				JOINT Shoulder_L
				{
					OFFSET 12.9942 -0.242716 4.98039
					CHANNELS 6 Xposition Yposition Zposition Zrotation Xrotation Yrotation 
					JOINT UpperArm_L
					{
						OFFSET 5.34809 0.0 0.0
						CHANNELS 6 Xposition Yposition Zposition Zrotation Xrotation Yrotation 
						JOINT LowerArm_L
						{
							OFFSET 24.3286 1.87007e-05 0.0
							CHANNELS 6 Xposition Yposition Zposition Zrotation Xrotation Yrotation 
							JOINT Hand_L
							{
								OFFSET 22.2916 0.0 0.0
								CHANNELS 6 Xposition Yposition Zposition Zrotation Xrotation Yrotation 
								End Site
								{
									OFFSET 0.0 0.0 0.0
								}
							}
						}
					}
				}
				JOINT Shoulder_R
				{
					OFFSET 12.9945 -0.242716 -4.98039
					CHANNELS 6 Xposition Yposition Zposition Zrotation Xrotation Yrotation 
					JOINT UpperArm_R
					{
						OFFSET -5.34813 0.0 0.0
						CHANNELS 6 Xposition Yposition Zposition Zrotation Xrotation Yrotation 
						JOINT LowerArm_R
						{
							OFFSET -24.3289 0.000322201 0.0
							CHANNELS 6 Xposition Yposition Zposition Zrotation Xrotation Yrotation 
							JOINT Hand_R
							{
								OFFSET -22.2915 -0.000108084 0.0
								CHANNELS 6 Xposition Yposition Zposition Zrotation Xrotation Yrotation 
								End Site
								{
									OFFSET 0.0 0.0 0.0
								}
							}
						}
					}
				}
			}
		}
		JOINT UpperLeg_L
		{
			OFFSET -2.19248 -6.46944 0.0
			CHANNELS 6 Xposition Yposition Zposition Zrotation Xrotation Yrotation 
			JOINT LowerLeg_L
			{
				OFFSET 39.0811 0.0 -1.23785e-05
				CHANNELS 6 Xposition Yposition Zposition Zrotation Xrotation Yrotation 
				JOINT Foot_L
				{
					OFFSET 40.9854 0.0 -1.26872e-05
					CHANNELS 6 Xposition Yposition Zposition Zrotation Xrotation Yrotation 
					JOINT Toes_L
					{
						OFFSET 11.7543 0.0 0.0
						CHANNELS 6 Xposition Yposition Zposition Zrotation Xrotation Yrotation 
						End Site
						{
							OFFSET 0.0 0.0 0.0
						}
					}
				}
			}
		}
		JOINT UpperLeg_R
		{
			OFFSET -2.19251 6.46944 0.0
			CHANNELS 6 Xposition Yposition Zposition Zrotation Xrotation Yrotation 
			JOINT LowerLeg_R
			{
				OFFSET -39.0811 -0.00228153 -0.0401928
				CHANNELS 6 Xposition Yposition Zposition Zrotation Xrotation Yrotation 
				JOINT Foot_R
				{
					OFFSET -40.9854 0.0 0.0
					CHANNELS 6 Xposition Yposition Zposition Zrotation Xrotation Yrotation 
					JOINT Toes_R
					{
						OFFSET -11.7543 0.0 0.0
						CHANNELS 6 Xposition Yposition Zposition Zrotation Xrotation Yrotation 
						End Site
						{
							OFFSET 0.0 0.0 0.0
						}
					}
				}
			}
		}
	}
}
MOTION
Frames:	6
Frame Time:	0.0333333
0.000000 0.000000 0.000000 0.000000 0.000000 -0.000000 1.177780 93.200200 -0.373320 88.713700 -0.353176 0.578749 15.735700 0.000005 -0.000001 118.407000 87.271400 -119.174000 8.984550 -0.406207 -0.000000 -2.949140 2.666750 -1.465320 16.377300 -0.000001 -0.000001 1.369100 1.638720 -3.558750 6.456720 -0.000001 -0.000000 3.637220 -1.145840 5.635640 12.994200 -0.242716 4.980390 -92.920300 8.525770 -71.011900 5.348090 -0.000007 -0.000001 -66.070100 20.404200 -4.099160 24.328600 0.000019 0.000005 10.044900 28.787700 -20.195200 22.291600 -0.000001 0.000005 -10.137700 5.202480 2.650920 12.994500 -0.242716 -4.980390 88.192900 6.584950 -74.616900 -5.348130 -0.000001 -0.000004 -73.191700 28.382500 -1.875740 -24.328900 0.000322 -0.000009 0.799917 2.645650 -16.850100 -22.291500 -0.000108 -0.000004 2.703610 5.288520 0.392084 -2.192480 -6.469440 -0.000000 -175.429000 -4.111440 -1.107570 39.081100 -0.000007 -0.000012 0.035321 -0.132385 14.939100 40.985400 -0.000006 -0.000013 -0.107078 10.812600 -68.570400 11.754300 -0.000000 0.000003 -0.000486 0.175438 -9.460680 -2.192510 6.469440 -0.000001 174.901000 6.911920 -178.102000 -39.081100 -0.002282 -0.040193 0.004342 -0.005924 9.608130 -40.985400 0.000008 0.000006 -10.069600 6.892990 -65.255700 -11.754300 -0.000006 -0.000006 -0.009945 0.270890 -5.567970
0.000000 0.000000 0.000000 0.000000 0.000000 -0.000000 1.116510 93.196800 -0.251671 88.821500 -0.287519 0.444618 15.735700 0.000005 -0.000001 120.972000 87.279900 -121.732000 8.984550 -0.406207 -0.000000 -3.083730 2.870370 -1.443840 16.377300 -0.000001 -0.000001 1.612050 1.677790 -3.927000 6.456720 -0.000001 -0.000000 3.626790 -1.290870 5.935000 12.994200 -0.242716 4.980390 -93.015600 8.713010 -70.824100 5.348090 -0.000007 -0.000001 -63.703900 18.894600 -5.926600 24.328600 0.000019 0.000005 10.038000 31.062700 -18.935200 22.291600 -0.000001 0.000005 -12.723800 5.272230 0.832997 12.994500 -0.242716 -4.980390 88.273200 6.335650 -74.720200 -5.348130 -0.000001 -0.000004 -73.472800 26.436100 -1.535950 -24.328900 0.000322 -0.000009 0.449722 1.539990 -16.314500 -22.291500 -0.000108 -0.000004 2.688990 5.296690 0.164700 -2.192480 -6.469440 -0.000000 -175.473000 -4.264870 -1.016540 39.081100 -0.000007 -0.000012 0.034076 -0.130122 14.675200 40.985400 -0.000006 -0.000013 -0.131954 11.049000 -68.566500 11.754300 -0.000000 0.000003 -0.000389 0.173940 -9.521560 -2.192510 6.469440 -0.000001 174.863000 6.942940 -178.213000 -39.081100 -0.002282 -0.040193 0.005097 -0.010225 9.755350 -40.985400 0.000008 0.000006 -9.856320 6.802050 -65.520000 -11.754300 -0.000006 -0.000006 -0.010353 0.273928 -5.443690
0.000000 0.000000 0.000000 0.000000 0.000000 -0.000000 1.039830 93.185200 -0.126871 88.953000 -0.085964 0.260336 15.735700 0.000005 -0.000001 124.159000 87.306200 -124.863000 8.984550 -0.406207 -0.000000 -3.290830 3.091470 -1.319910 16.377300 -0.000001 -0.000001 1.962990 1.738160 -4.234470 6.456720 -0.000001 -0.000000 3.404090 -1.366690 5.911420 12.994200 -0.242716 4.980390 -93.067800 8.828130 -70.750100 5.348090 -0.000007 -0.000001 -60.865200 15.540400 -8.426750 24.328600 0.000019 0.000005 9.046980 33.034700 -16.282100 22.291600 -0.000001 0.000005 -15.324400 5.313350 -0.306059 12.994500 -0.242716 -4.980390 88.354100 6.007430 -74.647100 -5.348130 -0.000001 -0.000004 -73.654300 23.782300 -1.437090 -24.328900 0.000322 -0.000009 -0.028229 -0.105121 -14.564500 -22.291500 -0.000108 -0.000004 2.678650 5.322070 -0.555489 -2.192480 -6.469440 -0.000000 -175.506000 -4.584880 -1.057270 39.081100 -0.000007 -0.000012 0.032791 -0.126825 14.496800 40.985400 -0.000006 -0.000013 -0.131069 11.563300 -68.549400 11.754300 -0.000000 0.000003 -0.000411 0.174282 -9.507670 -2.192510 6.469440 -0.000001 174.803000 7.032180 -178.421000 -39.081100 -0.002282 -0.040193 0.006460 -0.017637 10.036700 -40.985400 0.000008 0.000006 -9.776810 6.788930 -65.778100 -11.754300 -0.000006 -0.000006 -0.010076 0.271869 -5.527930
0.000000 0.000000 0.000000 0.000000 0.000000 -0.000000 0.971144 93.197300 0.006075 89.120400 0.221474 0.052301 15.735700 0.000005 -0.000001 126.733000 87.378000 -127.284000 8.984550 -0.406207 -0.000000 -3.550400 3.189080 -1.003340 16.377300 -0.000001 -0.000001 2.179060 1.953580 -4.401970 6.456720 -0.000001 -0.000000 3.064830 -1.158170 5.780570 12.994200 -0.242716 4.980390 -93.052000 8.717140 -70.618300 5.348090 -0.000007 -0.000001 -58.075500 10.031700 -11.068700 24.328600 0.000019 0.000005 7.384740 34.406100 -12.918600 22.291600 -0.000001 0.000005 -17.031800 5.309970 -0.208186 12.994500 -0.242716 -4.980390 88.414500 5.796630 -74.674200 -5.348130 -0.000001 -0.000004 -73.002200 21.415200 -1.410800 -24.328900 0.000322 -0.000009 -0.177330 -0.792401 -12.541000 -22.291500 -0.000108 -0.000004 2.491730 5.318230 -0.444703 -2.192480 -6.469440 -0.000000 -175.569000 -4.831530 -0.939027 39.081100 -0.000007 -0.000012 0.030094 -0.120889 13.979300 40.985400 -0.000006 -0.000013 -0.155844 12.144000 -68.423800 11.754300 -0.000000 0.000003 -0.000217 0.171198 -9.632940 -2.192510 6.469440 -0.000001 174.687000 7.273420 -178.438000 -39.081100 -0.002282 -0.040193 0.006910 -0.020373 9.941500 -40.985400 0.000008 0.000006 -9.801290 6.675280 -65.855500 -11.754300 -0.000006 -0.000006 -0.010153 0.272444 -5.504410
0.000000 0.000000 0.000000 0.000000 0.000000 -0.000000 0.912522 93.210800 0.151341 89.240300 0.622577 -0.338614 15.735700 0.000005 -0.000001 129.122000 87.509200 -129.346000 8.984550 -0.406207 -0.000000 -3.898030 3.164020 -0.340028 16.377300 -0.000001 -0.000001 1.905700 2.349980 -4.103050 6.456720 -0.000001 -0.000000 2.513870 -0.412089 5.412900 12.994200 -0.242716 4.980390 -92.912200 8.294940 -70.576700 5.348090 -0.000007 -0.000001 -55.573600 3.022980 -13.309800 24.328600 0.000019 0.000005 6.150430 35.716000 -10.458500 22.291600 -0.000001 0.000005 -17.110800 5.291680 0.304419 12.994500 -0.242716 -4.980390 88.440300 5.657040 -74.558400 -5.348130 -0.000001 -0.000004 -71.414100 18.342800 -1.172110 -24.328900 0.000322 -0.000009 -0.007217 -0.031389 -11.068800 -22.291500 -0.000108 -0.000004 2.247050 5.303910 -0.037618 -2.192480 -6.469440 -0.000000 -175.610000 -5.100940 -1.070580 39.081100 -0.000007 -0.000012 0.027498 -0.114159 13.543200 40.985400 -0.000006 -0.000013 -0.168876 12.752700 -68.324700 11.754300 -0.000000 0.000003 -0.000461 0.175054 -9.476290 -2.192510 6.469440 -0.000001 174.622000 7.686850 -178.575000 -39.081100 -0.002282 -0.040193 0.007510 -0.024298 9.739340 -40.985400 0.000008 0.000006 -9.991470 6.685220 -65.814100 -11.754300 -0.000006 -0.000006 -0.010313 0.273631 -5.455830
0.000000 0.000000 0.000000 0.000000 0.000000 -0.000000 0.906719 93.281400 0.245681 89.301100 0.881595 -1.067630 15.735700 0.000005 -0.000001 131.647000 87.758300 -131.359000 8.984550 -0.406207 -0.000000 -4.426190 2.946390 0.689347 16.377300 -0.000001 -0.000001 0.831648 2.940000 -3.099160 6.456720 -0.000001 -0.000000 1.950810 0.888485 4.960780 12.994200 -0.242716 4.980390 -92.715900 7.696720 -70.496300 5.348090 -0.000007 -0.000001 -52.427700 -3.099850 -14.408800 24.328600 0.000019 0.000005 5.729480 34.701200 -9.995090 22.291600 -0.000001 0.000005 -16.754700 5.291340 0.314187 12.994500 -0.242716 -4.980390 88.455700 5.529940 -74.370700 -5.348130 -0.000001 -0.000004 -69.146800 14.448600 -0.799239 -24.328900 0.000322 -0.000009 0.151637 0.851008 -10.173100 -22.291500 -0.000108 -0.000004 2.949090 5.294370 0.229588 -2.192480 -6.469440 -0.000000 -175.658000 -5.556090 -1.260590 39.081100 -0.000007 -0.000012 0.024138 -0.108455 12.547500 40.985400 -0.000006 -0.000013 -0.216648 13.395200 -68.021700 11.754300 -0.000000 0.000003 -0.000367 0.173589 -9.535800 -2.192510 6.469440 -0.000001 174.568000 7.829490 -178.734000 -39.081100 -0.002282 -0.040193 0.008651 -0.034561 8.735470 -40.985400 0.000008 0.000006 -10.956100 6.591250 -65.049800 -11.754300 -0.000006 -0.000006 -0.010023 0.271475 -5.544040
